<svg xmlns="http://www.w3.org/2000/svg" xmlns:xlink="http://www.w3.org/1999/xlink" version="1.1" width="256" height="256" viewBox="0 0 256 256" xml:space="preserve">

<defs>
</defs>
<g style="stroke: none; stroke-width: 0; stroke-dasharray: none; stroke-linecap: butt; stroke-linejoin: miter; stroke-miterlimit: 10; fill: none; fill-rule: nonzero; opacity: 1;" transform="translate(1.4065934065934016 1.4065934065934016) scale(2.81 2.81)" >
	<path d="M 79.604 73.732 C 86.091 65.932 90 55.915 90 45 C 90 20.187 69.813 0 45 0 C 20.187 0 0 20.187 0 45 c 0 10.914 3.908 20.93 10.394 28.73 c 0.058 0.105 0.131 0.205 0.229 0.287 c 0.011 0.01 0.026 0.011 0.037 0.02 C 18.922 83.791 31.246 90 45 90 c 13.753 0 26.077 -6.208 34.338 -15.961 c 0.012 -0.009 0.027 -0.012 0.039 -0.022 C 79.474 73.935 79.546 73.837 79.604 73.732 z M 45 2 c 23.71 0 43 19.29 43 43 c 0 10.075 -3.492 19.345 -9.318 26.683 c -6.896 -7.786 -16.157 -12.891 -26.268 -14.572 c 7.824 -2.996 13.404 -10.564 13.404 -19.428 c 0 -11.479 -9.339 -20.817 -20.817 -20.817 s -20.817 9.339 -20.817 20.817 c 0 8.864 5.58 16.432 13.403 19.428 c -10.112 1.681 -19.372 6.786 -26.268 14.572 C 5.492 64.345 2 55.076 2 45 C 2 21.29 21.29 2 45 2 z M 45 56.5 c -10.376 0 -18.817 -8.441 -18.817 -18.817 c 0 -10.376 8.441 -18.817 18.817 -18.817 s 18.817 8.441 18.817 18.817 C 63.817 48.059 55.376 56.5 45 56.5 z M 45 88 c -12.909 0 -24.499 -5.726 -32.388 -14.763 C 20.794 63.867 32.542 58.5 45 58.5 c 12.458 0 24.206 5.367 32.387 14.738 C 69.499 82.274 57.909 88 45 88 z" style="stroke: none; stroke-width: 1; stroke-dasharray: none; stroke-linecap: butt; stroke-linejoin: miter; stroke-miterlimit: 10; fill: rgb(0,0,0); fill-rule: nonzero; opacity: 1;" transform=" matrix(1 0 0 1 0 0) " stroke-linecap="round" />
</g>
</svg>